<svg width="140" height="49" viewBox="0 0 140 49" fill="none" xmlns="http://www.w3.org/2000/svg">
<path d="M3.2583 6.33929H78.6736L93.5436 35.5956H138.738V48.7105" stroke="#4CAF50" stroke-width="1.90476"/>
<ellipse cx="4.2634" cy="6.33902" rx="2.00217" ry="3.02651" fill="#D9D9D9"/>
<path d="M7.78934 6.33867C7.78934 7.93001 7.36176 9.349 6.69554 10.3561C6.02688 11.3668 5.15648 11.9155 4.26119 11.9155C3.36589 11.9155 2.49549 11.3668 1.82683 10.3561C1.16061 9.349 0.733026 7.93001 0.733026 6.33867C0.733026 4.74734 1.16061 3.32835 1.82683 2.32127C2.49549 1.31052 3.36589 0.761835 4.26119 0.761835C5.15648 0.761835 6.02688 1.31052 6.69554 2.32127C7.36176 3.32835 7.78934 4.74734 7.78934 6.33867Z" stroke="white" stroke-width="0.952381"/>
</svg>
